<?xml version="1.0" standalone="no"?>
<!DOCTYPE svg PUBLIC "-//W3C//DTD SVG 20010904//EN"
 "http://www.w3.org/TR/2001/REC-SVG-20010904/DTD/svg10.dtd">
<svg version="1.0" xmlns="http://www.w3.org/2000/svg"
 width="261.000000pt" height="261.000000pt" viewBox="0 0 261.000000 261.000000"
 preserveAspectRatio="xMidYMid meet">
<metadata>
Created by potrace 1.11, written by Peter Selinger 2001-2013
</metadata>
<g transform="translate(0.000000,261.000000) scale(0.100000,-0.100000)"
fill="#000000" stroke="none">
<path d="M242 2591 c-4 -11 -7 -425 -6 -920 0 -731 3 -902 14 -915 8 -11 27
-16 54 -15 67 2 66 3 66 -54 0 -29 5 -58 12 -65 15 -15 1384 -17 1407 -3 13 8
15 140 15 917 1 677 -2 911 -11 923 -10 13 -37 16 -173 17 -89 1 -165 5 -169
10 -3 5 -34 35 -69 67 l-63 57 -535 0 c-520 0 -535 -1 -542 -19z"/>
<path d="M2060 595 c-8 -9 -13 -49 -14 -103 l-1 -87 -88 0 c-74 0 -91 -3 -102
-18 -19 -26 -17 -143 3 -159 9 -8 47 -13 101 -13 l86 0 1 -71 c1 -95 9 -121
36 -127 38 -10 137 -2 149 10 8 8 12 43 11 101 l-2 88 87 -1 c111 -2 121 6
119 98 -1 39 -6 71 -14 79 -8 8 -43 13 -95 14 -45 1 -85 2 -88 3 -4 1 -7 40
-8 89 -1 68 -5 90 -18 100 -25 18 -147 16 -163 -3z"/>
<path d="M1310 585 c-9 -11 -13 -46 -13 -103 l0 -87 -85 0 c-112 1 -124 -9
-121 -101 1 -42 7 -68 17 -76 9 -8 48 -13 101 -13 l86 0 2 -50 c1 -27 2 -66 2
-85 2 -55 12 -63 85 -67 100 -6 105 0 108 110 l3 92 87 0 c53 0 92 5 99 12 18
18 22 132 5 157 -12 20 -23 22 -105 21 l-91 0 0 92 c0 109 -4 113 -103 113
-46 0 -68 -4 -77 -15z"/>
</g>
</svg>
